<?xml version="1.0" standalone="no"?>
<!DOCTYPE svg PUBLIC "-//W3C//DTD SVG 20010904//EN"
 "http://www.w3.org/TR/2001/REC-SVG-20010904/DTD/svg10.dtd">
<svg version="1.0" xmlns="http://www.w3.org/2000/svg"
 width="300.000000pt" height="300.000000pt" viewBox="0 0 300.000000 300.000000"
 preserveAspectRatio="xMidYMid meet">
<metadata>
Created by potrace 1.10, written by Peter Selinger 2001-2011
</metadata>
<g transform="translate(0.000000,300.000000) scale(0.100000,-0.100000)"
fill="#000000" stroke="none">
<path d="M1140 2843 c-49 -18 -74 -76 -54 -128 8 -21 62 -48 81 -41 19 8 7 26
-17 26 -11 0 -27 11 -36 25 -24 37 -11 73 32 91 43 18 38 43 -6 27z"/>
<path d="M1610 2838 c0 -19 12 -34 38 -47 29 -15 28 -23 -8 -43 -41 -23 -40
-59 1 -91 l31 -24 -31 -22 c-17 -12 -31 -31 -31 -42 0 -26 5 -24 45 16 41 41
45 71 11 87 -37 16 -39 35 -6 58 39 28 38 45 -5 86 -37 37 -45 41 -45 22z"/>
<path d="M1877 2843 c-4 -3 -7 -44 -7 -90 l0 -83 83 0 c46 0 86 2 88 4 2 2 3
43 1 90 l-3 86 -78 0 c-43 0 -81 -3 -84 -7z m143 -83 l0 -60 -63 0 -62 0 0 60
0 60 62 0 63 0 0 -60z"/>
<path d="M340 2765 c-35 -35 -61 -68 -57 -72 8 -7 137 115 137 129 0 18 -19 4
-80 -57z"/>
<path d="M2502 2819 c2 -7 37 -11 93 -11 56 0 91 4 93 11 2 7 -28 11 -93 11
-65 0 -95 -4 -93 -11z"/>
<path d="M1244 2770 c-28 -11 -54 -49 -53 -75 0 -12 4 -8 10 14 7 23 19 37 40
44 16 6 29 15 29 19 0 9 1 9 -26 -2z"/>
<path d="M2108 2773 c20 -4 22 -10 22 -73 l0 -69 -72 -4 -73 -3 78 -2 77 -2 0
80 0 80 -27 -1 c-24 -2 -25 -2 -5 -6z"/>
<path d="M1730 2763 c0 -7 11 -20 25 -29 14 -9 25 -22 25 -29 0 -6 -11 -17
-25 -23 -14 -6 -25 -16 -25 -22 0 -6 14 -1 30 12 36 26 39 53 8 69 -13 7 -26
17 -30 23 -5 8 -8 7 -8 -1z"/>
<path d="M450 2693 l-65 -68 68 65 c37 35 67 66 67 67 0 8 -10 -2 -70 -64z"/>
<path d="M2663 2753 c26 -2 67 -2 90 0 23 2 2 3 -48 3 -49 0 -68 -1 -42 -3z"/>
<path d="M658 2691 c-53 -14 -100 -30 -104 -34 -9 -8 134 -157 151 -157 12 0
67 202 57 211 -4 3 -51 -6 -104 -20z m73 -37 c-6 -16 -15 -49 -21 -73 l-12
-44 -54 54 -54 53 72 22 c40 11 74 20 76 19 1 -1 -2 -15 -7 -31z"/>
<path d="M2360 2551 c0 -61 3 -111 8 -111 14 0 176 97 179 107 2 6 -31 31 -74
56 -123 72 -113 77 -113 -52z m150 -1 c0 -3 -29 -22 -65 -42 l-65 -37 0 79 0
78 65 -36 c35 -20 64 -39 65 -42z"/>
<path d="M801 2629 c-18 -6 -31 -12 -29 -14 2 -3 19 0 38 5 19 5 35 8 37 6 3
-2 0 -22 -6 -45 -6 -23 -16 -60 -22 -82 l-10 -42 -37 34 c-36 33 -36 33 3 -9
22 -23 41 -39 42 -35 1 4 13 50 27 101 27 102 28 101 -43 81z"/>
<path d="M1730 2620 c0 -6 11 -16 25 -22 32 -14 32 -33 1 -53 -13 -9 -27 -24
-30 -33 -5 -15 -5 -15 6 -1 7 9 23 21 36 28 31 16 28 43 -8 69 -16 13 -30 18
-30 12z"/>
<path d="M1279 2571 c-48 -48 -34 -114 29 -140 71 -30 143 49 107 118 -30 59
-89 68 -136 22z m103 -18 c38 -34 11 -103 -40 -103 -53 0 -83 68 -46 104 20
21 63 20 86 -1z"/>
<path d="M2574 2528 c65 -44 66 -41 -13 -86 -40 -23 -74 -42 -76 -42 -2 0 -6
17 -8 38 -3 33 -4 32 -5 -11 -1 -27 1 -46 6 -44 132 75 171 100 166 108 -3 5
-24 18 -47 29 -23 11 -34 15 -23 8z"/>
<path d="M1473 2514 c57 -31 54 -107 -6 -128 -22 -8 -36 -7 -60 7 l-32 17 24
-20 c56 -48 143 4 125 75 -6 26 -48 65 -68 65 -6 -1 2 -8 17 -16z"/>
<path d="M187 2493 c-4 -3 0 -15 10 -25 15 -17 15 -19 -1 -37 -23 -25 -2 -40
23 -17 16 15 19 15 31 1 7 -8 16 -15 21 -15 15 0 10 22 -8 36 -17 13 -17 15 0
28 17 13 24 36 10 36 -3 0 -15 -7 -25 -17 -17 -15 -19 -15 -36 0 -10 10 -22
14 -25 10z"/>
<path d="M1833 2438 c2 -9 31 -13 97 -13 66 0 95 4 98 13 3 9 -21 12 -98 12
-77 0 -101 -3 -97 -12z"/>
<path d="M1010 2386 c0 -7 7 -19 16 -27 14 -11 14 -13 0 -21 -16 -9 -23 -38
-9 -38 3 0 15 8 25 17 17 15 19 15 32 -2 7 -11 18 -15 25 -10 9 5 7 13 -9 30
-18 19 -19 23 -6 28 17 7 22 37 7 37 -5 0 -14 -7 -21 -15 -12 -14 -15 -14 -30
0 -21 19 -30 19 -30 1z"/>
<path d="M2740 2389 c0 -7 8 -18 18 -25 16 -12 16 -14 -2 -27 -11 -8 -16 -19
-12 -26 6 -9 13 -8 27 5 18 16 20 16 38 0 13 -12 21 -14 26 -6 4 6 -1 17 -10
24 -15 11 -16 15 -4 34 17 28 4 40 -20 18 -16 -15 -19 -15 -31 -1 -15 18 -30
20 -30 4z"/>
<path d="M1993 2373 c26 -2 67 -2 90 0 23 2 2 3 -48 3 -49 0 -68 -1 -42 -3z"/>
<path d="M2296 2321 c-22 -24 -14 -57 15 -66 22 -7 59 18 59 40 0 14 -32 45
-47 45 -5 0 -18 -9 -27 -19z"/>
<path d="M670 2305 c-26 -32 13 -81 48 -59 34 22 22 74 -18 74 -10 0 -23 -7
-30 -15z m46 -16 c10 -17 -13 -36 -27 -22 -12 12 -4 33 11 33 5 0 12 -5 16
-11z"/>
<path d="M1529 2238 c-23 -40 -47 -83 -55 -94 -7 -12 -10 -24 -7 -28 8 -7 223
-8 223 -1 0 9 -102 185 -111 190 -4 3 -27 -27 -50 -67z m85 -33 c20 -36 36
-67 36 -68 0 -1 -34 -2 -75 -2 -41 0 -74 2 -73 5 9 17 73 130 74 130 1 0 18
-29 38 -65z"/>
<path d="M289 2231 c-31 -31 -39 -71 -14 -71 8 0 15 9 15 19 0 28 27 51 59 51
30 0 61 -27 61 -53 0 -9 7 -17 15 -17 19 0 19 13 0 50 -30 58 -90 67 -136 21z"/>
<path d="M1675 2218 c-5 -7 -4 -10 0 -5 5 4 28 -25 51 -65 l42 -73 -56 -6 -57
-6 67 -1 68 -2 -46 78 c-54 92 -59 98 -69 80z"/>
<path d="M2105 2185 c-33 -32 -33 -84 -2 -119 24 -27 68 -38 74 -18 3 7 -4 12
-14 12 -23 0 -63 39 -63 61 0 24 29 57 52 61 12 2 23 9 26 16 7 22 -48 13 -73
-13z"/>
<path d="M2490 2125 l0 -85 85 0 85 0 0 85 0 85 -85 0 -85 0 0 -85z m150 -1
l0 -64 -65 0 -65 0 0 58 c0 32 3 61 6 65 4 3 33 6 65 6 l59 -1 0 -64z"/>
<path d="M804 2127 c-3 -8 -4 -47 -2 -88 l3 -74 85 0 85 0 0 85 0 85 -83 3
c-63 2 -84 0 -88 -11z m146 -77 l0 -60 -60 0 -60 0 0 60 0 60 60 0 60 0 0 -60z"/>
<path d="M1190 2121 c0 -11 14 -30 31 -44 l31 -24 -31 -22 c-41 -30 -42 -66
-1 -89 16 -9 30 -20 30 -23 0 -3 -13 -15 -30 -27 -26 -20 -41 -52 -24 -52 13
0 74 66 74 80 0 9 -13 26 -30 38 -33 25 -31 44 6 60 33 16 33 58 -1 74 -13 6
-27 19 -30 30 -8 24 -25 23 -25 -1z"/>
<path d="M2229 2127 c-19 -14 -43 -57 -36 -64 3 -2 8 5 12 17 4 12 21 30 38
41 18 10 25 19 17 19 -8 -1 -22 -6 -31 -13z"/>
<path d="M2718 2133 l32 -4 0 -70 0 -71 -75 4 c-41 2 -75 0 -75 -4 0 -5 36 -8
80 -8 l80 0 0 80 0 80 -37 -2 c-37 -1 -37 -1 -5 -5z"/>
<path d="M1040 2062 c23 -7 25 -13 28 -75 l3 -67 -70 0 c-46 0 -71 4 -74 13
-3 7 -6 5 -6 -5 -1 -16 9 -18 79 -18 l81 0 -3 78 -3 77 -30 2 c-28 2 -28 1 -5
-5z"/>
<path d="M1310 2044 c0 -8 11 -20 25 -26 14 -6 25 -17 25 -23 0 -7 -11 -20
-25 -29 -14 -9 -25 -22 -25 -29 0 -8 3 -9 8 -1 4 6 17 16 30 23 30 16 28 42
-8 73 -20 18 -30 22 -30 12z"/>
<path d="M1958 2024 c-13 -13 -19 -14 -36 -3 -28 17 -40 4 -18 -20 15 -16 15
-19 1 -31 -8 -7 -15 -16 -15 -21 0 -15 27 -10 41 7 11 14 13 14 21 0 9 -16 38
-23 38 -9 0 3 -8 15 -17 25 -15 17 -15 19 3 32 13 10 16 18 9 25 -8 8 -16 6
-27 -5z"/>
<path d="M260 1926 c0 -11 69 -76 81 -76 8 0 26 14 42 32 l27 33 28 -33 c15
-18 33 -32 40 -32 11 0 82 66 82 76 0 2 -9 4 -19 4 -11 0 -30 -14 -42 -31 -21
-30 -23 -31 -35 -13 -26 37 -35 44 -59 44 -16 0 -30 -10 -42 -30 -9 -16 -20
-30 -23 -30 -3 0 -13 14 -22 30 -10 18 -25 30 -38 30 -11 0 -20 -2 -20 -4z"/>
<path d="M1310 1909 c0 -5 11 -16 25 -25 33 -21 32 -35 -6 -63 -17 -13 -29
-25 -26 -27 6 -7 67 49 67 61 0 6 -13 22 -30 37 -16 14 -30 22 -30 17z"/>
<path d="M609 1829 l-22 -32 -24 29 c-12 16 -23 24 -23 18 0 -11 37 -54 47
-54 4 0 21 16 39 35 17 19 26 35 19 35 -8 0 -24 -14 -36 -31z"/>
<path d="M2160 1851 c0 -5 8 -12 18 -15 11 -4 25 -18 32 -31 19 -36 55 -33 75
5 9 17 20 30 25 30 5 0 19 -13 32 -30 12 -16 28 -30 37 -30 15 0 85 70 77 77
-11 11 -44 -10 -55 -35 l-13 -27 -26 33 c-34 41 -64 41 -94 2 l-22 -30 -24 30
c-22 28 -62 42 -62 21z"/>
<path d="M2316 1755 c30 -39 36 -42 58 -19 22 22 20 31 -3 10 -17 -16 -20 -16
-35 -1 -9 9 -16 20 -16 25 0 4 -7 11 -15 14 -10 3 -6 -7 11 -29z"/>
<path d="M2450 1763 c31 -48 39 -49 76 -9 18 20 29 36 24 36 -5 0 -20 -15 -34
-32 l-25 -33 -31 35 -32 35 22 -32z"/>
<path d="M1655 1734 c-51 -55 -15 -144 59 -144 81 0 122 95 62 146 -38 33 -89
32 -121 -2z m103 -14 c12 -12 22 -32 22 -45 0 -27 -35 -65 -61 -65 -29 0 -61
34 -61 65 0 31 32 65 61 65 10 0 27 -9 39 -20z"/>
<path d="M1840 1683 c32 -12 50 -37 50 -69 0 -58 -58 -90 -108 -60 l-27 17 24
-20 c72 -64 167 44 101 114 -13 14 -31 25 -39 24 -14 0 -14 -1 -1 -6z"/>
<path d="M560 1559 c0 -83 3 -110 13 -107 21 5 187 103 187 110 0 8 -174 108
-189 108 -7 0 -11 -35 -11 -111z m143 14 c16 -8 10 -15 -43 -46 -34 -21 -64
-37 -68 -37 -4 0 -6 33 -4 74 l4 75 46 -28 c26 -16 55 -33 65 -38z"/>
<path d="M160 1650 c0 -6 38 -10 95 -10 57 0 95 4 95 10 0 6 -38 10 -95 10
-57 0 -95 -4 -95 -10z"/>
<path d="M1079 1621 c-16 -16 -29 -39 -29 -50 0 -32 18 -25 34 14 14 33 28 41
66 35 23 -3 50 -31 50 -52 0 -12 5 -18 13 -15 20 7 9 50 -19 75 -36 31 -79 29
-115 -7z"/>
<path d="M1432 1628 c-30 -30 0 -75 43 -64 19 5 25 13 25 35 0 38 -41 56 -68
29z m44 -19 c10 -17 -13 -36 -27 -22 -12 12 -4 33 11 33 5 0 12 -5 16 -11z"/>
<path d="M2281 1581 c-52 -15 -96 -31 -98 -37 -4 -12 144 -160 152 -152 7 7
55 184 55 204 0 17 6 18 -109 -15z m63 -77 c-9 -38 -19 -71 -21 -73 -2 -3 -26
19 -54 48 -29 28 -49 54 -46 57 5 6 131 41 135 38 2 -1 -5 -32 -14 -70z"/>
<path d="M2647 1542 c-68 -68 -77 -82 -54 -82 20 0 141 130 131 140 -6 6 -34
-15 -77 -58z"/>
<path d="M323 1583 c26 -2 67 -2 90 0 23 2 2 3 -48 3 -49 0 -68 -1 -42 -3z"/>
<path d="M1278 1560 c19 -12 32 -28 32 -40 0 -11 5 -20 10 -20 6 0 10 5 10 11
0 15 -56 69 -72 69 -7 0 2 -9 20 -20z"/>
<path d="M770 1546 c0 -2 17 -14 37 -26 l36 -21 -74 -43 -74 -42 -6 31 c-6 29
-6 29 -8 -7 0 -21 1 -38 4 -38 3 0 44 22 90 49 64 36 82 51 73 58 -18 14 -78
44 -78 39z"/>
<path d="M2437 1522 c-27 -7 -47 -15 -45 -18 2 -2 21 1 42 7 21 6 39 9 41 7 2
-2 -7 -40 -19 -85 l-22 -83 -33 33 c-25 24 -30 26 -22 10 14 -27 53 -56 62
-45 9 10 51 171 47 181 -2 4 -25 1 -51 -7z"/>
<path d="M2755 1470 c-33 -33 -56 -60 -51 -60 4 0 35 27 68 60 34 33 56 60 51
60 -5 0 -35 -27 -68 -60z"/>
<path d="M360 1371 c-16 -31 4 -63 37 -59 34 4 52 32 37 56 -16 26 -60 28 -74
3z"/>
<path d="M1590 1375 c0 -8 6 -15 14 -15 8 0 18 -9 21 -20 3 -11 16 -25 28 -31
18 -10 24 -8 47 20 32 37 44 39 65 7 27 -40 44 -40 86 4 21 21 34 42 29 45
-14 9 -48 -12 -55 -35 -9 -27 -29 -25 -43 4 -6 13 -21 27 -33 31 -18 6 -29 1
-52 -25 l-29 -33 -25 32 c-26 33 -53 41 -53 16z"/>
<path d="M1152 1348 c-19 -20 -22 -20 -28 -5 -3 9 -12 17 -20 17 -18 0 -18
-14 1 -30 14 -12 14 -15 0 -30 -19 -21 -19 -30 -1 -30 8 0 17 7 20 16 6 16 8
16 24 0 19 -16 42 -22 42 -9 0 3 -7 15 -17 25 -15 17 -15 19 1 37 24 27 4 35
-22 9z"/>
<path d="M1951 1299 c-12 -13 -21 -26 -21 -31 0 -17 -25 -7 -48 20 l-23 27 17
-32 c23 -41 42 -42 77 -2 32 36 30 52 -2 18z"/>
<path d="M2704 1255 c-7 -29 10 -55 36 -55 24 0 42 24 38 52 -2 18 -10 24 -35
26 -28 3 -33 -1 -39 -23z m52 -6 c3 -6 2 -15 -2 -19 -12 -12 -38 5 -30 19 9
14 23 14 32 0z"/>
<path d="M1352 1169 c-29 -50 -50 -95 -47 -100 3 -4 53 -8 110 -8 82 0 105 3
105 14 0 17 -99 185 -108 185 -5 0 -31 -41 -60 -91z m66 -77 c-39 -2 -72 -1
-75 1 -2 3 13 32 33 67 l36 62 38 -64 38 -63 -70 -3z"/>
<path d="M2308 1224 c-13 -13 -19 -14 -36 -3 -28 17 -40 4 -18 -20 15 -16 15
-19 1 -31 -8 -7 -15 -16 -15 -21 0 -14 22 -10 42 7 16 16 18 16 24 0 3 -9 12
-16 20 -16 18 0 18 9 -3 32 -15 17 -15 19 3 32 13 10 16 18 9 25 -8 8 -16 6
-27 -5z"/>
<path d="M1510 1180 c0 -5 4 -10 8 -10 5 0 14 -10 20 -22 6 -13 25 -47 42 -75
l30 -53 -90 0 c-66 0 -89 3 -84 12 4 7 3 8 -4 4 -30 -18 -4 -26 88 -26 55 0
100 3 100 6 0 4 -21 44 -47 90 -44 77 -63 99 -63 74z"/>
<path d="M295 1170 c-54 -21 -75 -80 -46 -127 50 -81 174 -32 157 61 -10 50
-67 84 -111 66z m67 -37 c10 -9 18 -30 18 -49 0 -26 -6 -36 -27 -47 -66 -33
-124 42 -73 93 24 24 57 26 82 3z"/>
<path d="M800 1178 c-1 -2 -1 -39 -2 -83 l-1 -80 86 -3 87 -3 0 86 0 85 -85 0
c-47 0 -85 -1 -85 -2z m143 -80 l-1 -63 -61 -3 -61 -3 0 65 0 66 63 0 62 0 -2
-62z"/>
<path d="M1826 1173 c-18 -18 3 -23 89 -21 55 2 95 7 95 13 0 11 -173 18 -184
8z"/>
<path d="M1028 1103 l32 -4 0 -70 0 -69 -69 0 c-58 0 -70 3 -74 18 -4 13 -5
11 -6 -5 -1 -22 2 -23 79 -23 l80 0 0 80 0 80 -37 -2 c-37 -1 -37 -1 -5 -5z"/>
<path d="M2000 1100 c-11 -7 3 -10 48 -10 35 0 62 4 62 10 0 13 -90 13 -110 0z"/>
<path d="M462 1084 c35 -18 46 -59 27 -93 -19 -33 -80 -41 -112 -15 -22 18
-22 18 0 -6 31 -33 79 -32 110 4 12 15 23 38 23 50 0 29 -36 76 -58 76 -11 -1
-8 -6 10 -16z"/>
<path d="M2595 1078 c-32 -17 -45 -39 -45 -78 0 -78 96 -115 146 -56 33 38 31
80 -5 117 -31 30 -62 36 -96 17z m92 -44 c15 -23 15 -29 2 -52 -21 -37 -43
-48 -76 -36 -65 23 -48 114 22 114 26 0 39 -6 52 -26z"/>
<path d="M2750 1013 c30 -11 60 -47 60 -73 0 -57 -71 -91 -112 -53 -10 9 -18
11 -18 5 0 -16 33 -32 65 -32 36 0 75 42 75 80 0 35 -38 80 -67 79 -14 0 -15
-2 -3 -6z"/>
<path d="M2330 970 c0 -13 12 -28 30 -38 16 -9 30 -19 30 -22 0 -3 -14 -13
-30 -22 -21 -12 -30 -25 -30 -42 0 -25 7 -34 44 -60 18 -12 17 -14 -13 -35
-17 -12 -31 -31 -31 -42 0 -24 17 -25 25 -1 3 11 17 24 30 30 34 16 31 42 -7
75 l-33 27 33 28 c18 15 32 33 32 41 0 12 -65 81 -76 81 -2 0 -4 -9 -4 -20z"/>
<path d="M1921 851 c-28 -48 -51 -93 -51 -100 0 -7 35 -11 110 -11 67 0 110 4
110 10 0 16 -101 190 -110 190 -5 0 -31 -40 -59 -89z m94 -8 c17 -31 32 -60
33 -65 2 -4 -30 -8 -71 -8 l-75 0 36 65 c20 35 39 65 42 65 3 0 19 -26 35 -57z"/>
<path d="M2468 881 c31 -27 42 -51 22 -51 -13 0 -50 -37 -50 -51 0 -5 15 -24
33 -40 l32 -30 -33 -27 c-18 -15 -32 -31 -32 -37 0 -5 6 -3 13 6 7 9 22 21 35
28 29 16 28 49 -2 63 -39 17 -41 40 -7 69 17 14 31 30 31 36 0 11 -56 63 -67
63 -5 -1 7 -13 25 -29z"/>
<path d="M910 869 c0 -5 14 -23 32 -39 l31 -29 -31 -29 c-36 -34 -34 -67 4
-84 29 -14 31 -34 4 -43 -23 -7 -44 -41 -35 -55 9 -14 25 -12 25 3 0 7 14 23
30 35 17 13 30 29 30 37 0 8 -13 24 -30 37 -36 27 -38 45 -5 60 42 19 42 45 0
84 -38 35 -55 42 -55 23z"/>
<path d="M2077 856 c-4 -10 -3 -14 3 -11 8 5 90 -122 90 -140 0 -3 -41 -5 -90
-4 -50 1 -93 -1 -97 -5 -3 -3 42 -6 101 -6 l107 0 -38 70 c-21 38 -45 79 -54
91 -14 19 -17 20 -22 5z"/>
<path d="M1658 805 c-8 -19 -8 -28 2 -40 18 -21 57 -19 70 4 13 25 13 27 -6
45 -23 24 -53 20 -66 -9z"/>
<path d="M1030 800 c0 -5 15 -20 33 -34 l32 -26 -33 -28 c-18 -15 -32 -34 -32
-42 0 -8 14 -27 32 -43 32 -27 33 -27 13 -42 -34 -24 -45 -35 -45 -44 0 -5 16
6 35 23 43 40 44 51 5 71 -37 19 -40 51 -6 67 40 18 41 39 1 74 -19 18 -35 29
-35 24z"/>
<path d="M217 783 c-4 -3 0 -14 9 -24 13 -14 13 -20 3 -38 -17 -27 -4 -39 20
-17 16 15 19 15 31 1 7 -8 16 -15 21 -15 16 0 10 29 -8 40 -17 10 -17 10 0 20
16 11 24 40 10 40 -3 0 -15 -7 -25 -17 -17 -15 -19 -15 -36 0 -10 10 -22 14
-25 10z"/>
<path d="M1326 691 c-46 -46 -64 -71 -56 -76 13 -8 140 111 140 132 0 24 -15
14 -84 -56z"/>
<path d="M1440 625 c-36 -36 -60 -65 -54 -65 13 0 129 118 123 124 -3 3 -34
-24 -69 -59z"/>
<path d="M583 625 c-45 -13 -87 -26 -94 -30 -12 -8 127 -155 147 -155 9 0 64
175 64 203 0 11 -31 7 -117 -18z m84 -17 c-3 -7 -11 -39 -18 -70 -7 -32 -16
-58 -19 -58 -9 0 -104 99 -99 103 6 5 111 34 127 36 8 0 11 -5 9 -11z"/>
<path d="M743 569 c-18 -5 -33 -12 -33 -15 0 -3 10 -2 23 1 61 18 58 23 36
-57 -11 -40 -22 -79 -25 -87 -3 -11 -14 -5 -42 20 l-37 34 40 -43 c21 -23 40
-42 41 -42 1 0 12 37 24 83 12 45 24 90 26 100 6 19 -4 20 -53 6z"/>
<path d="M2190 566 c0 -8 7 -17 16 -20 16 -6 16 -8 0 -24 -9 -10 -16 -24 -16
-30 0 -19 18 -14 30 9 11 20 12 20 31 3 24 -22 39 -10 16 13 -15 16 -15 18 0
35 21 24 8 36 -16 14 -16 -15 -19 -15 -31 -1 -16 19 -30 19 -30 1z"/>
<path d="M1679 471 c-16 -16 -29 -39 -29 -51 0 -28 24 -21 28 8 8 51 87 56
112 7 8 -16 16 -32 17 -34 1 -1 6 0 12 3 17 11 -9 66 -40 81 -42 22 -67 18
-100 -14z"/>
<path d="M299 431 c-31 -31 -36 -59 -17 -94 16 -30 39 -46 66 -47 31 0 27 12
-11 30 -28 13 -32 20 -32 55 0 36 4 42 33 54 36 17 42 31 11 31 -11 0 -34 -13
-50 -29z"/>
<path d="M2490 375 l0 -85 85 0 85 0 0 85 0 85 -85 0 -85 0 0 -85z m150 0 l0
-65 -65 0 -65 0 0 65 0 65 65 0 65 0 0 -65z"/>
<path d="M1864 415 c11 -8 23 -15 27 -15 4 0 12 -12 17 -27 9 -23 11 -25 11
-7 1 23 -22 47 -54 58 -20 6 -20 6 -1 -9z"/>
<path d="M416 369 c-35 -28 -36 -80 -1 -114 13 -14 32 -25 42 -24 12 0 7 6
-15 17 -57 28 -56 102 1 127 18 8 25 14 16 15 -9 0 -28 -9 -43 -21z"/>
<path d="M1354 380 c-58 -24 -70 -95 -25 -141 33 -32 58 -36 100 -14 32 16 41
33 41 79 0 55 -65 97 -116 76z m76 -40 c24 -24 25 -48 4 -78 -23 -34 -84 -28
-102 10 -30 64 48 118 98 68z"/>
<path d="M2718 383 l32 -4 0 -70 0 -71 -74 4 c-41 2 -72 0 -69 -4 2 -5 38 -8
79 -8 l74 0 0 80 0 80 -37 -2 c-37 -1 -37 -1 -5 -5z"/>
<path d="M830 300 c0 -6 40 -10 100 -10 60 0 100 4 100 10 0 6 -40 10 -100 10
-60 0 -100 -4 -100 -10z"/>
<path d="M1534 289 c32 -25 36 -77 8 -102 -20 -19 -77 -23 -87 -7 -3 6 -12 10
-18 10 -28 -1 30 -30 60 -30 44 0 73 30 73 75 0 35 -28 75 -51 75 -7 0 0 -9
15 -21z"/>
<path d="M1980 306 c0 -12 69 -76 83 -76 8 0 25 14 37 30 12 17 25 30 30 30 5
0 16 -13 25 -30 20 -39 60 -41 77 -5 6 13 19 27 30 30 24 8 23 25 -1 25 -11 0
-30 -14 -42 -31 l-22 -31 -24 31 c-32 41 -65 41 -94 0 -21 -30 -23 -31 -35
-13 -24 35 -35 44 -49 44 -8 0 -15 -2 -15 -4z"/>
<path d="M993 233 c26 -2 67 -2 90 0 23 2 2 3 -48 3 -49 0 -68 -1 -42 -3z"/>
<path d="M2329 209 l-22 -32 -23 27 c-31 35 -40 33 -14 -4 25 -36 34 -37 58
-9 9 12 23 27 30 35 7 8 9 14 3 14 -5 0 -20 -14 -32 -31z"/>
<path d="M2120 225 c0 -5 9 -21 20 -35 15 -20 23 -23 36 -14 10 6 20 17 23 25
2 8 -3 7 -14 -5 -18 -18 -20 -18 -42 10 -13 16 -23 25 -23 19z"/>
</g>
</svg>
