<?xml version="1.0" encoding="UTF-8"?>
<svg id="Layer_2" data-name="Layer 2" xmlns="http://www.w3.org/2000/svg" viewBox="0 0 224.77 121.37">
  <defs>
    <style>
      .cls-1 {
        fill: #ef6e71;
      }

      .cls-2 {
        fill: #fff;
      }

      .cls-3 {
        fill: #455567;
      }
    </style>
  </defs>
  <g id="Layer_1-2" data-name="Layer 1">
    <g>
      <g>
        <path class="cls-3" d="M4.77,66.16c.13-1.34.71-2.41,1.73-3.23,1.02-.82,2.21-1.19,3.58-1.13,1.3.13,2.39.71,3.26,1.73.87,1.02,1.22,2.22,1.05,3.59l-1.25,13.39c.2-.17,1.14-.61,2.81-1.33,1.67-.72,3.51-1.08,5.52-1.08,2.27,0,4.09.68,5.47,2.03,1.37,1.35,2.44,3.06,3.21,5.12.77,2.06,1.29,4.34,1.55,6.84.27,2.51.4,5.01.4,7.52,0,2.24-.08,4.39-.23,6.44s-.31,3.88-.48,5.47c-.17,1.59-.38,3.2-.65,4.84s-.94,2.86-2.01,3.66c-1.07.8-2.27,1.09-3.61.85-1.34-.27-2.4-.94-3.18-2.01-.79-1.07-1.08-2.24-.88-3.51,0-.03.07-.37.2-1,.13-.63.27-1.45.4-2.46s.28-2.18.45-3.54c.17-1.35.33-2.77.5-4.24.17-1.47.29-2.97.38-4.51.08-1.54.12-2.99.12-4.36,0-1.14-.03-2.2-.1-3.18-.07-.99-.19-1.81-.38-2.46-.18-.65-.38-1.11-.58-1.38-.2-.27-.4-.4-.6-.4-1.1,0-2.11.29-3.03.88-.92.59-1.78,1.39-2.58,2.41-.8,1.02-1.5,2.23-2.11,3.64-.6,1.4-1.12,2.86-1.55,4.36-.43,1.5-.8,3.04-1.1,4.61s-.52,3.04-.65,4.41l-.7,7.22c-.07,1.2-.59,2.07-1.58,2.61-.99.53-2.01.8-3.08.8-1.24,0-2.4-.33-3.49-1-1.09-.67-1.61-1.71-1.58-3.11,0-.07.04-.73.12-1.98.08-1.25.28-2.88.58-4.89l4.06-41.62Z"/>
        <path class="cls-3" d="M46.88,103.87c.03.23.17.86.4,1.88.23,1.02.58,1.95,1.05,2.78.47.84,1.04,1.49,1.71,1.96.67.47,1.45.7,2.36.7,1.64,0,3.06-.19,4.26-.58,1.21-.38,2.17-.79,2.91-1.23.74-.43,1.25-.8,1.53-1.1.29-.3.43-.43.43-.4,1.07-1.4,2.41-2.11,4.01-2.11,1.13,0,2.14.35,3.01,1.05,1.24.97,1.86,2.24,1.86,3.81,0,1.07-1.24,2.67-3.71,4.81-2.47,2.14-4.76,3.58-6.87,4.34s-4.58,1.13-7.42,1.13c-2.61,0-4.88-.58-6.82-1.75-1.94-1.17-3.54-2.67-4.79-4.49s-2.18-3.86-2.78-6.12c-.6-2.26-.9-4.5-.9-6.75,0-1.87.19-3.83.58-5.87s1.01-4.04,1.88-6.02c.87-1.97,2.01-3.84,3.43-5.59,1.42-1.75,3.19-3.23,5.29-4.44,1.4-.87,2.92-1.5,4.56-1.91s3.31-.6,5.02-.6c2.74,0,5.31.51,7.72,1.53,2.41,1.02,4.33,2.48,5.77,4.39,1.04,1.4,1.79,2.89,2.26,4.46.47,1.57.7,3.21.7,4.91,0,.57-.02,1.1-.07,1.61-.05.5-.11,1.04-.18,1.6-.4,1.77-1.3,3.2-2.71,4.29-1.4,1.09-3.03,1.92-4.87,2.51-1.84.58-3.84.99-5.99,1.2-2.16.22-4.29.33-6.39.33h-1.71c-.54,0-1.09-.03-1.65-.1l-3.86-.25ZM48.39,94.3c-.07,0,.23.02.9.05.67.03,1.29.07,1.86.1.44.03.92.05,1.46.05h1.9c1.14,0,2.34-.02,3.61-.05,1.27-.03,2.42-.1,3.46-.2,1.04-.1,1.77-.19,2.21-.28.43-.08.65,0,.65.28.17-.97.18-1.91.05-2.83-.13-.92-.42-1.68-.85-2.28-.54-.67-1.35-1.17-2.43-1.5-1.09-.33-2.2-.5-3.33-.5-.9,0-1.75.08-2.53.25s-1.51.45-2.18.85c-1.3.77-2.37,1.81-3.18,3.13-.82,1.32-1.35,2.3-1.58,2.93Z"/>
        <path class="cls-3" d="M81.98,84.02c.07-1.37.63-2.49,1.68-3.36,1.05-.87,2.23-1.24,3.54-1.1,1.34.07,2.44.6,3.31,1.6.87,1,1.27,2.19,1.2,3.56,3.44-3.31,6.18-4.96,8.22-4.96,2.54,0,4.62.33,6.24.98,1.62.65,2.89,1.5,3.81,2.53.92,1.04,1.54,2.16,1.85,3.36.32,1.2.48,2.32.48,3.36,0,.57-.03,1.09-.08,1.55s-.12.89-.23,1.25c-.07.43-.17.82-.3,1.15-.33,1.27-1.1,2.21-2.31,2.83-1.2.62-2.42.74-3.66.38-1.34-.37-2.32-1.14-2.96-2.31-.63-1.17-.75-2.37-.35-3.61,0,.07.02-.02.05-.25.03-.23,0-.44-.08-.63-.08-.18-.28-.38-.6-.58-.32-.2-.94-.3-1.88-.3s-1.91.54-2.83,1.63c-.92,1.09-1.79,2.53-2.61,4.34-.82,1.8-1.55,3.82-2.18,6.04-.64,2.22-1.17,4.36-1.6,6.42-.43,2.06-.79,3.88-1.05,5.47-.27,1.59-.45,2.7-.55,3.33-.17,1.1-.71,1.92-1.63,2.46-.92.53-1.88.8-2.88.8-1.3,0-2.51-.37-3.61-1.1-1.1-.74-1.6-1.82-1.5-3.26l2.51-31.59Z"/>
        <path class="cls-3" d="M122.2,88.53c.77-.53,1.37-.83,1.8-.9.2-.67.63-1.56,1.28-2.68.65-1.12,1.53-2.16,2.63-3.11,1.1-.95,2.49-1.74,4.16-2.36,1.67-.62,3.69-.93,6.07-.93,2.97,0,5.6.74,7.87,2.21,2.27,1.47,4.01,3.39,5.21,5.77.9,1.71,1.55,3.52,1.93,5.44.38,1.92.58,3.84.58,5.74,0,2.37-.26,4.7-.78,6.97-.52,2.27-1.27,4.39-2.26,6.34-.99,1.96-2.23,3.69-3.74,5.21-1.5,1.52-3.24,2.71-5.21,3.58-1.27.5-2.62.88-4.06,1.15-1.44.27-2.88.4-4.31.4-2.78,0-5.26-.59-7.47-1.76-2.21-1.17-4.01-2.72-5.42-4.66-1.1-1.54-1.91-3.23-2.41-5.06-.5-1.84-.75-3.66-.75-5.47,0-2.14.2-4.12.6-5.94.4-1.82.86-3.42,1.38-4.79.52-1.37,1.04-2.51,1.58-3.41.53-.9.97-1.49,1.3-1.75ZM127.91,97.15c.13-.27.16-.15.08.35-.08.5-.2,1.14-.35,1.91-.15.77-.28,1.59-.4,2.46s-.18,1.72-.18,2.56c0,.94.12,1.82.35,2.66.23.84.57,1.59,1,2.26.5.74,1.19,1.3,2.06,1.71.87.4,1.84.6,2.91.6.87,0,1.66-.06,2.38-.17s1.46-.31,2.23-.58c1-.33,1.87-.94,2.61-1.8.73-.87,1.36-1.93,1.88-3.18.52-1.25.9-2.61,1.15-4.06.25-1.45.38-2.83.38-4.14,0-1.2-.11-2.4-.33-3.58-.22-1.19-.56-2.25-1.03-3.18-.87-1.77-2.37-2.66-4.51-2.66-1.44,0-2.49.21-3.16.63s-1.19.91-1.55,1.48c-.33.57-.54,1.24-.6,2,0,1.34-.48,2.47-1.45,3.41-.97.94-2.12,1.39-3.46,1.35Z"/>
      </g>
      <circle class="cls-1" cx="107.07" cy="67.78" r="21.46"/>
      <path class="cls-2" d="M104.47,61.25c.01.51-.16.97-.51,1.38s-.8.62-1.33.64c-.52.01-.97-.16-1.35-.52-.38-.36-.58-.81-.59-1.34.03-1.14.24-2.1.64-2.87.4-.78.98-1.43,1.74-1.95,1.29-.9,3.02-1.39,5.18-1.47,1.33,0,2.42.18,3.27.55.84.37,1.53.88,2.05,1.55.46.54.8,1.15,1.04,1.83.24.69.35,1.41.35,2.17,0,.88-.15,1.71-.45,2.5s-.73,1.59-1.28,2.4c-.38.54-.81,1.08-1.29,1.62-.48.54-.98,1.08-1.5,1.6-.52.52-1.07,1.03-1.63,1.52-.56.49-1.1.95-1.61,1.38-.42.37-.81.72-1.19,1.05-.37.33-.47.42-.28.25h1.16c.81,0,1.57.02,2.27.06.7.04,1.3.09,1.81.14.62.05,1.18.1,1.71.16.52.07.94.31,1.26.73.31.42.44.88.39,1.39-.05.54-.29.96-.71,1.28-.42.31-.99.42-1.71.33-.35-.03-.76-.07-1.23-.12-.47-.05-1.03-.09-1.67-.12s-1.32-.04-2.04-.04c-.85,0-1.71.03-2.6.08-.88.05-1.76.16-2.64.31-.34.07-.66.03-.97-.1-.31-.13-.56-.32-.77-.56-.2-.24-.34-.53-.41-.85s-.06-.65.03-.98c.2-.55.46-1.06.8-1.53s.73-.94,1.16-1.41.91-.94,1.45-1.41c.54-.47,1.1-.98,1.71-1.53.42-.35.87-.75,1.36-1.19.49-.44.99-.9,1.49-1.38.5-.48.97-.96,1.41-1.43s.81-.92,1.11-1.35c.35-.51.62-.98.79-1.41s.26-.89.26-1.37c0-.63-.18-1.16-.53-1.59-.18-.22-.43-.4-.74-.52-.31-.12-.81-.19-1.5-.19-1.4.04-2.45.31-3.16.8-.24.17-.42.39-.55.66-.13.27-.2.56-.2.87Z"/>
      <g>
        <path class="cls-3" d="M42.4,4.94c.19-1.5.87-2.74,2.03-3.7S46.92-.12,48.39.03c1.54.15,2.77.82,3.7,2,.92,1.19,1.31,2.53,1.16,4.04l-2.48,24.1c1.02.79,1.58,2.07,1.69,3.84,0,1.09-.29,2.08-.88,2.96-.58.88-1.14,1.5-1.66,1.83l-2.77,25.68c-.15,1.47-.81,2.68-1.97,3.64-1.17.96-2.5,1.36-4.01,1.21-1.54-.15-2.78-.82-3.7-2-.92-1.19-1.31-2.51-1.16-3.98l2.43-23.48-20.2.62-2.48,24.21c-.15,1.5-.82,2.74-2,3.7-1.18.96-2.53,1.34-4.04,1.16-1.47-.11-2.68-.75-3.64-1.92-.96-1.17-1.36-2.52-1.21-4.06l2.48-23.87c-.41-.26-.87-.78-1.38-1.55-.51-.77-.78-1.68-.82-2.74-.11-1.24.21-2.36.96-3.36.75-1,1.5-1.63,2.26-1.89l2.6-24.72c.19-1.5.86-2.73,2-3.67,1.15-.94,2.47-1.33,3.98-1.19,1.54.15,2.78.82,3.72,2s1.32,2.53,1.13,4.04l-2.37,22.8,20.15-.62,2.54-23.87Z"/>
        <path class="cls-3" d="M64.64,15.66c-1.51,0-2.79-.53-3.87-1.58-1.07-1.05-1.63-2.35-1.67-3.89,0-1.5.53-2.79,1.58-3.87s2.35-1.63,3.89-1.67l42.27-.23c1.51,0,2.79.54,3.87,1.61s1.61,2.36,1.61,3.87c.04,1.47-.48,2.74-1.55,3.81-1.07,1.07-2.36,1.61-3.87,1.61l-16.93.17-5.19,48.31c-.15,1.5-.82,2.74-2,3.7-1.19.96-2.53,1.34-4.04,1.16-1.47-.15-2.68-.8-3.64-1.95-.96-1.15-1.36-2.47-1.21-3.98l5.19-47.18-14.45.11Z"/>
        <path class="cls-3" d="M127.23,7.2c-.15-1.47.22-2.79,1.13-3.98.9-1.19,2.12-1.87,3.67-2.06.79-.08,1.52,0,2.2.2.68.21,1.3.53,1.86.96.56.43,1.04.97,1.41,1.61.38.64.58,1.3.62,1.98.11.49.2.97.25,1.44.06.47.05.89-.03,1.27.19,1.24.45,2.99.79,5.25.34,2.26.73,4.7,1.19,7.34.45,2.63.95,5.27,1.49,7.9.54,2.63,1.14,4.99,1.78,7.06.64,2.07,1.22,3.66,1.75,4.77.53,1.11.94,1.65,1.24,1.61h.11c.11,0,.54-.49,1.3-1.47.75-.98,1.65-2.36,2.71-4.15,1.05-1.79,2.18-3.83,3.38-6.12,1.21-2.29,2.4-4.65,3.58-7.05,1.19-2.41,2.31-4.77,3.39-7.08s2.01-4.37,2.82-6.18c.81-1.81,1.68-3.76,2.62-5.87.49-1.13,1.16-1.91,2.03-2.34.87-.43,1.75-.65,2.65-.65.75,0,1.49.11,2.2.34s1.35.56,1.92,1.02c.56.45,1.02,1.04,1.36,1.75.34.71.47,1.49.39,2.31l-4.68,56.49c-.15,1.47-.8,2.7-1.95,3.7-1.15,1-2.47,1.42-3.98,1.27-.79-.04-1.51-.24-2.14-.59-.64-.36-1.18-.81-1.61-1.35-.43-.55-.76-1.16-.99-1.83-.22-.68-.32-1.37-.28-2.09l2.37-28.16s-.75,1.3-2.37,4.01c-1.62,2.71-3.25,5.15-4.88,7.31-1.64,2.16-3.24,3.97-4.82,5.42-1.58,1.45-3.11,2.21-4.57,2.29-1.81.08-3.46-.48-4.97-1.66-1.51-1.19-2.85-2.76-4.04-4.71-1.19-1.96-2.27-4.19-3.24-6.69-.98-2.5-1.45-3.66-1.41-3.47l-4.29,25.11c-.3,1.47-1.06,2.64-2.29,3.53-1.22.88-2.57,1.19-4.04.93-1.54-.3-2.74-1.06-3.58-2.29-.85-1.22-1.16-2.57-.93-4.04l8.97-51.98c-.07-.34-.11-.58-.11-.73v-.28Z"/>
        <path class="cls-3" d="M189.76,6.52c.45-1.5,1.31-2.64,2.57-3.41,1.26-.77,2.64-.95,4.15-.54,1.47.34,2.58,1.15,3.33,2.43.75,1.28.95,2.77.59,4.46-.36,1.69-.87,4.46-1.52,8.3s-1.19,6.99-1.58,9.45c-.39,2.46-.79,4.96-1.19,7.48-.39,2.52-.72,4.98-.99,7.37-.26,2.39-.49,4.61-.68,6.66-.19,2.05-.28,3.77-.28,5.16,0,1.13.04,1.91.11,2.34.07.43.04.63-.11.59,1.21.19,2.45.34,3.72.45,1.28.11,2.54.17,3.78.17,2.11,0,4.15-.1,6.12-.31,1.97-.21,3.72-.45,5.25-.73s2.96-.57,4.32-.88c1.99-.45,3.63-.27,4.91.54,1.28.81,2.07,1.93,2.37,3.36.3,1.54.05,2.93-.76,4.18s-2.34,2.14-4.6,2.71c0-.04-.43.04-1.3.23-.87.19-2.31.42-4.35.71-2.03.28-4.36.55-6.97.82-2.62.26-5.3.4-8.04.4-1.62,0-3.23-.06-4.83-.17-1.6-.11-3.13-.32-4.6-.62-1.35-.19-2.43-.77-3.22-1.75-.79-.98-1.42-2.16-1.89-3.56s-.8-2.97-.99-4.74c-.19-1.77-.28-3.67-.28-5.7,0-3.01.17-6.21.51-9.59.34-3.39.76-6.76,1.27-10.13.51-3.37,1.07-6.59,1.69-9.68.62-3.08,1.19-5.82,1.69-8.21.51-2.39.93-4.27,1.27-5.64.34-1.37.51-2.08.51-2.12Z"/>
      </g>
    </g>
  </g>
</svg>